<svg width="1600" height="1000" viewBox="0 0 1600 1000" fill="none" xmlns="http://www.w3.org/2000/svg">
  <defs>
    <linearGradient id="bg" x1="0" y1="0" x2="1" y2="1">
      <stop offset="0%" stop-color="#EAF4FF"/>
      <stop offset="100%" stop-color="#DFEBFF"/>
    </linearGradient>
    <linearGradient id="line" x1="0" y1="0" x2="1" y2="0">
      <stop offset="0%" stop-color="#3C96FF"/>
      <stop offset="100%" stop-color="#8E87FF"/>
    </linearGradient>
  </defs>
  <rect width="1600" height="1000" fill="url(#bg)"/>
  <g stroke="#95BBED" stroke-width="2" opacity="0.75">
    <path d="M100 180H1500"/><path d="M100 300H1500"/><path d="M100 420H1500"/><path d="M100 540H1500"/><path d="M100 660H1500"/><path d="M100 780H1500"/>
  </g>
  <path d="M140 760C250 700 320 620 450 600C580 580 660 700 780 680C900 660 1000 500 1160 500C1320 500 1390 420 1460 360" stroke="url(#line)" stroke-width="12" stroke-linecap="round"/>
  <g>
    <circle cx="450" cy="600" r="20" fill="#FFFFFF" stroke="#4FA0FF" stroke-width="6"/>
    <circle cx="780" cy="680" r="20" fill="#FFFFFF" stroke="#4FA0FF" stroke-width="6"/>
    <circle cx="1160" cy="500" r="20" fill="#FFFFFF" stroke="#4FA0FF" stroke-width="6"/>
    <circle cx="1460" cy="360" r="20" fill="#FFFFFF" stroke="#4FA0FF" stroke-width="6"/>
  </g>
  <g>
    <rect x="170" y="200" width="190" height="110" rx="22" fill="#DBECFF" stroke="#8FB9F1" stroke-width="3"/>
    <rect x="390" y="235" width="190" height="75" rx="22" fill="#E8EFFF" stroke="#AFA3F3" stroke-width="3"/>
    <rect x="610" y="190" width="190" height="120" rx="22" fill="#E2F1FF" stroke="#8FB9F1" stroke-width="3"/>
    <rect x="830" y="220" width="190" height="90" rx="22" fill="#EAF4FF" stroke="#9DC2F6" stroke-width="3"/>
  </g>
</svg>
