<svg width="1600" height="1000" viewBox="0 0 1600 1000" fill="none" xmlns="http://www.w3.org/2000/svg">
  <defs>
    <linearGradient id="bg" x1="0" y1="0" x2="1" y2="1">
      <stop offset="0%" stop-color="#EAF4FF"/>
      <stop offset="100%" stop-color="#DCEBFF"/>
    </linearGradient>
    <linearGradient id="panel" x1="0" y1="0" x2="1" y2="1">
      <stop offset="0%" stop-color="#FFFFFF"/>
      <stop offset="100%" stop-color="#EEF6FF"/>
    </linearGradient>
  </defs>
  <rect width="1600" height="1000" fill="url(#bg)"/>
  <circle cx="340" cy="210" r="230" fill="#8DC2FF" fill-opacity="0.45"/>
  <circle cx="1270" cy="710" r="270" fill="#A795FF" fill-opacity="0.32"/>
  <rect x="150" y="120" width="1300" height="760" rx="36" fill="url(#panel)" stroke="#8EB8F2" stroke-width="4"/>
  <rect x="230" y="210" width="520" height="86" rx="18" fill="#D9EAFF"/>
  <rect x="230" y="330" width="970" height="26" rx="13" fill="#C9E1FF"/>
  <rect x="230" y="370" width="860" height="26" rx="13" fill="#D6E7FF"/>
  <rect x="230" y="445" width="430" height="330" rx="26" fill="#E3F0FF" stroke="#9DC2F6" stroke-width="3"/>
  <rect x="700" y="445" width="500" height="150" rx="24" fill="#EAF3FF" stroke="#A8CAF8" stroke-width="3"/>
  <rect x="700" y="625" width="500" height="150" rx="24" fill="#EDEBFF" stroke="#B8A8F6" stroke-width="3"/>
  <g stroke="#7EB3EE" stroke-width="2" opacity="0.6">
    <path d="M150 190H1450"/>
    <path d="M150 260H1450"/>
    <path d="M150 330H1450"/>
    <path d="M150 400H1450"/>
  </g>
</svg>
